<?xml version="1.0" standalone="no"?><!DOCTYPE svg PUBLIC "-//W3C//DTD SVG 1.1//EN" "http://www.w3.org/Graphics/SVG/1.1/DTD/svg11.dtd"><svg t="1763716544588" class="icon" viewBox="0 0 1328 1024" version="1.1" xmlns="http://www.w3.org/2000/svg" p-id="8566" xmlns:xlink="http://www.w3.org/1999/xlink" width="259.375" height="200"><path d="M859.589792 158.080905h-81.155741a25.106239 25.106239 0 0 1-25.950146-18.776935L724.91627 56.53074l-58.440572 105.488398A27.356658 27.356658 0 0 1 618.865268 162.019138l-22.715169-40.929498L573.083303 147.954018a26.161123 26.161123 0 0 1-21.09768 9.91591H468.931091a19.550516 19.550516 0 0 1 0-39.101033h77.358159L576.669908 82.691863a27.497309 27.497309 0 0 1 44.938058 4.219536l21.09768 37.553869L703.67794 14.335381a25.24689 25.24689 0 0 1 26.442425-14.06512 25.457867 25.457867 0 0 1 23.48875 18.565958l33.264008 100.003002h72.716669a19.550516 19.550516 0 1 1 0 39.101032z" fill="#3A4362" p-id="8567"></path><path d="M312.667611 164.480534a78.13174 78.13174 0 1 1 60.620666-28.76317l146.347571 263.650669a30.802612 30.802612 0 0 1 3.867908 15.120004v2.39107A31.224566 31.224566 0 0 1 492.27919 445.782928a31.365217 31.365217 0 0 1-27.00503-16.034236l-147.683757-265.338484h-4.993117z m726.674411 0a78.13174 78.13174 0 1 0-60.550341-28.76317l-146.628873 263.650669a31.576194 31.576194 0 0 0-3.867908 15.120004v2.39107a31.224566 31.224566 0 0 0 31.224566 28.903821 31.365217 31.365217 0 0 0 26.934704-16.034236l147.683757-265.338484h4.993118zM156.26348 867.73652H78.13174A78.13174 78.13174 0 0 1 0 789.60478v-78.202066A78.13174 78.13174 0 0 1 78.13174 633.200649h78.13174zM1172.187077 633.200649h78.13174a78.13174 78.13174 0 0 1 78.13174 78.13174v78.202065a78.13174 78.13174 0 0 1-78.13174 78.13174h-78.13174z" fill="#4A5B9F" p-id="8568"></path><path d="M781.458052 242.612274A390.729026 390.729026 0 0 1 1172.187077 633.200649v312.597285a78.202066 78.202066 0 0 1-78.13174 78.13174H234.465546a78.202066 78.202066 0 0 1-78.13174-78.13174V633.200649a390.729026 390.729026 0 0 1 390.729025-390.588375zM507.961799 477.007494a117.232773 117.232773 0 1 0 0 234.39522h312.597285a117.232773 117.232773 0 1 0 0-234.39522z" fill="#A4BEFF" p-id="8569"></path><path d="M617.38843 594.240267a78.413042 78.413042 0 0 1-1.547163 15.190329 70.888203 70.888203 0 0 1-4.430513 14.69805 76.162623 76.162623 0 0 1-7.03256 13.572841 74.123181 74.123181 0 0 1-9.704932 11.8147 76.865879 76.865879 0 0 1-11.744375 9.704933 81.366718 81.366718 0 0 1-28.13024 11.674049 75.670344 75.670344 0 0 1-30.450984 0 72.365041 72.365041 0 0 1-14.69805-4.500838 75.529693 75.529693 0 0 1-13.502515-7.03256 81.788671 81.788671 0 0 1-11.8147-9.704932 74.123181 74.123181 0 0 1-9.704933-11.814701 81.01509 81.01509 0 0 1-7.03256-13.57284 72.646343 72.646343 0 0 1-4.430513-14.698051 78.342717 78.342717 0 0 1-1.476837-15.190329 74.404483 74.404483 0 0 1 1.547163-15.260655 72.716669 72.716669 0 0 1 4.360187-14.627724 83.124858 83.124858 0 0 1 7.03256-13.502515 74.685786 74.685786 0 0 1 9.704933-11.885026 77.358158 77.358158 0 0 1 11.8147-9.704933 82.77323 82.77323 0 0 1 13.502515-7.03256 76.936205 76.936205 0 0 1 14.69805-4.430512 75.670344 75.670344 0 0 1 30.450984 0 75.459367 75.459367 0 0 1 14.69805 4.430512 74.967088 74.967088 0 0 1 25.317216 16.878144 74.685786 74.685786 0 0 1 9.704933 11.885026 78.061414 78.061414 0 0 1 7.032559 13.502515 70.325599 70.325599 0 0 1 4.500839 14.627724 79.608578 79.608578 0 0 1 1.336186 14.979353z" fill="#5B79FB" p-id="8570"></path><path d="M867.395933 594.240267a78.342717 78.342717 0 0 1-1.476838 15.190329 79.467926 79.467926 0 0 1-11.603723 28.13024 78.624019 78.624019 0 0 1-9.775258 11.8147 77.358158 77.358158 0 0 1-11.814701 9.704933 73.208948 73.208948 0 0 1-13.502515 7.03256 72.365041 72.365041 0 0 1-14.69805 4.500838 73.419925 73.419925 0 0 1-15.260655 1.547163 74.263832 74.263832 0 0 1-15.190329-1.547163 79.25695 79.25695 0 0 1-28.13024-11.674049 78.694345 78.694345 0 0 1-11.885026-9.704933 74.123181 74.123181 0 0 1-9.704932-11.533398 76.162623 76.162623 0 0 1-7.03256-13.572841 77.358158 77.358158 0 0 1-4.500839-14.69805 78.342717 78.342717 0 0 1-1.476837-15.190329 79.678903 79.678903 0 0 1 1.547163-15.260655 83.335834 83.335834 0 0 1 4.430513-14.627724 78.061414 78.061414 0 0 1 7.03256-13.502515 76.3736 76.3736 0 0 1 21.589958-21.589959 76.725228 76.725228 0 0 1 13.43219-7.03256 75.459367 75.459367 0 0 1 14.69805-4.430513 74.263832 74.263832 0 0 1 15.190329-1.547163 73.419925 73.419925 0 0 1 15.260655 1.547163 76.936205 76.936205 0 0 1 14.69805 4.430513 82.77323 82.77323 0 0 1 13.502515 7.03256 78.834996 78.834996 0 0 1 21.589959 21.589959 82.77323 82.77323 0 0 1 7.03256 13.502515 81.366718 81.366718 0 0 1 6.048001 29.888379z" fill="#FF7E71" p-id="8571"></path><path d="M898.690824 914.503043H1054.883979a39.101033 39.101033 0 1 0 0-78.13174H273.566579a39.101033 39.101033 0 1 0 0 78.13174z" fill="#FFFFFF" p-id="8572"></path><path d="M312.667611 594.240267a195.294187 195.294187 0 0 1 195.294188-195.364513h312.597285a195.364513 195.364513 0 0 1 0 390.729026H507.961799a195.294187 195.294187 0 0 1-195.294188-195.364513z m31.224566 0a163.999296 163.999296 0 0 0 164.069622 164.139947h312.597285A163.999296 163.999296 0 0 0 984.55838 594.310593a163.999296 163.999296 0 0 0-164.069621-164.069622H507.961799A163.999296 163.999296 0 0 0 343.892177 594.310593z" fill="#4A5B9F" p-id="8573"></path></svg>